# xmcd CD database file
#
# Track frame offsets:
#	150
#	20456
#	36819
#	50598
#	65222
#	78842
#	91165
#	105982
#	117623
#	132652
#	151774
#	174450
#	185162
#	209074
#	226629
#	242466
#	255187
#	280875
#	294453
#	310257
#	322680
#	336509
#
# Disc length: 4658 seconds
#
# Revision: 0
# Processed by: cddbd v1.5.1PL0 Copyright (c) Steve Scherf et al.
# Submitted via: CDex 1.51
#
DISCID=33123016
DTITLE=Jack Teagarden - Big "T" #4: Gotta Right to Sing the Blues
DYEAR=2005
DGENRE=Jazz
TTITLE0=Save It, Pretty Mama-1947 
TTITLE1=St. James Infirmary-1947 
TTITLE2=Jack-Armstrong Blues-1947 
TTITLE3=Some Day (You'll Be Sorry)-1947 
TTITLE4=Fifty-fifty Blues-1947 
TTITLE5=Nobody Knows the Trouble I've Seen-1947 
TTITLE6=Aunt Hagar's Blues-1947 
TTITLE7=Down among the Sheltering Palms-1947 
TTITLE8=Please, Stop Playing Those Blues-1947 
TTITLE9=(What Did I Do to Be So) Black and Blue?-1947 
TTITLE10=Royal Garden Blues-1947 
TTITLE11=Lover-1947 
TTITLE12=Stars Fell on Alabama-1947 
TTITLE13=Mahogany Hall Stomp-1947 
TTITLE14=High Society-1947 
TTITLE15=Baby, Won't You Please Come Home?-1947 
TTITLE16=Way down Yonder in New Orleans-1951 
TTITLE17=That's a Plenty-1951 
TTITLE18=Stardust-1951 
TTITLE19=I Gotta Right to Sing the Blues-1953 
TTITLE20=Love Me-1953 
TTITLE21=Body and Soul-1953 
EXTD=YEAR: 2005
EXTT0=
EXTT1=
EXTT2=
EXTT3=
EXTT4=
EXTT5=
EXTT6=
EXTT7=
EXTT8=
EXTT9=
EXTT10=
EXTT11=
EXTT12=
EXTT13=
EXTT14=
EXTT15=
EXTT16=
EXTT17=
EXTT18=
EXTT19=
EXTT20=
EXTT21=
PLAYORDER=
